# xmcd
#
# Track frame offsets:
#	150
#	21570
#	38613
#	60341
#	82464
#	100829
#	114643
#	135174
#	149184
#	171868
#
# Disc length: 2517 seconds
#
# Revision: 0
# Processed by: cddbd v1.5.2PL0 Copyright (c) Steve Scherf et al.
# Submitted via: audiograbber 1.83.01
#
DISCID=8c09d30a
DTITLE=Lack - Be There Pulse
DYEAR=2005
DGENRE=Indie
TTITLE0=Marathon Man
TTITLE1=5 O'Clock in the Evening
TTITLE2=Primo Levi
TTITLE3=Deserters
TTITLE4=New American Centrury.org
TTITLE5=Soot, Smoke and Ash
TTITLE6=Disburden
TTITLE7=Simonix
TTITLE8=Ritornello
TTITLE9=The Gay Revolutions
EXTD=
EXTT0=
EXTT1=
EXTT2=
EXTT3=
EXTT4=
EXTT5=
EXTT6=
EXTT7=
EXTT8=
EXTT9=
PLAYORDER=
